<svg width="86" height="100" viewBox="0 0 86 100" fill="none" xmlns="http://www.w3.org/2000/svg">
<mask id="mask0_155_353" style="mask-type:luminance" maskUnits="userSpaceOnUse" x="36" y="7" width="17" height="8">
<path d="M36.6707 7.22412H52.2945V14.0295H36.6707V7.22412Z" fill="white"/>
</mask>
<g mask="url(#mask0_155_353)">
<path d="M44.927 14.0297C42.4479 13.9803 40.3634 13.2479 38.6051 11.7002C38.0277 11.1922 37.5417 10.6111 37.1421 9.9614C37.0752 9.85154 36.9985 9.74645 36.9284 9.63658C36.3999 8.80223 36.7425 7.69241 37.7309 7.33415C38.5187 7.04913 39.3864 7.37236 39.7403 8.11755C40.0502 8.7656 40.52 9.27513 41.0859 9.70823C41.9651 10.377 42.9665 10.7623 44.074 10.8929C45.0494 11.0091 45.9986 10.9072 46.912 10.5426C47.5547 10.2846 48.1157 9.91204 48.5675 9.39455C48.822 9.10157 49.0226 8.77993 49.1661 8.42326C49.2102 8.31817 49.2542 8.2099 49.3097 8.10959C49.6326 7.53159 50.2769 7.23065 50.9668 7.32937C51.5996 7.42013 52.1265 7.92807 52.2553 8.55861C52.3157 8.85636 52.2782 9.14138 52.1705 9.42162C51.6828 10.6923 50.8591 11.7145 49.737 12.5106C48.6132 13.3084 47.3508 13.7717 45.9742 13.9405C45.5876 13.9883 45.1978 14.0074 44.927 14.0297Z" fill="white"/>
</g>
<mask id="mask1_155_353" style="mask-type:luminance" maskUnits="userSpaceOnUse" x="62" y="0" width="9" height="8">
<path d="M62.6403 0H70.3845V7.64452H62.6403V0Z" fill="white"/>
</mask>
<g mask="url(#mask1_155_353)">
<path d="M70.5068 3.83589C70.5019 5.93769 68.724 7.68283 66.4928 7.64143C64.4213 7.60321 62.6663 5.98705 62.6402 3.87251C62.6142 1.68631 64.4132 0.0144192 66.5433 8.87551e-05C68.7485 -0.0142416 70.5117 1.7086 70.5068 3.83589Z" fill="white"/>
</g>
<mask id="mask2_155_353" style="mask-type:luminance" maskUnits="userSpaceOnUse" x="18" y="0" width="9" height="8">
<path d="M18.713 0.216309H26.6333V7.96115H18.713V0.216309Z" fill="white"/>
</mask>
<g mask="url(#mask2_155_353)">
<path d="M26.6203 4.10001C26.6219 6.19544 24.8718 7.94376 22.6438 7.92147C20.5202 7.89918 18.7896 6.26391 18.7537 4.16847C18.7178 1.9361 20.5756 0.302425 22.6405 0.278541C24.7755 0.256249 26.6186 1.92814 26.6203 4.10001Z" fill="white"/>
</g>
<mask id="mask3_155_353" style="mask-type:luminance" maskUnits="userSpaceOnUse" x="41" y="8" width="45" height="71">
<path d="M42.1979 9.03581H85.3333V78.2213H42.1979V9.03581Z" fill="white" stroke="white" stroke-width="1.33333"/>
</mask>
<g mask="url(#mask3_155_353)">
<mask id="mask4_155_353" style="mask-type:luminance" maskUnits="userSpaceOnUse" x="41" y="8" width="46" height="71">
<path d="M85.0657 9.51744L85.0671 9.51831C85.3236 9.67084 85.4736 9.9391 85.4736 10.2208V54.6803C85.4736 55.9229 84.7608 57.0701 83.6118 57.6463L43.4628 77.7485C43.191 77.8843 42.8642 77.8721 42.6045 77.7177C42.3466 77.5628 42.1979 77.2953 42.1979 77.0152V32.5556C42.1979 31.3127 42.911 30.1644 44.0592 29.5899L44.0594 29.5898L84.2091 9.48734L84.2103 9.48673C84.4813 9.35037 84.8067 9.36249 85.0657 9.51744Z" fill="white" stroke="white" stroke-width="1.33333"/>
</mask>
<g mask="url(#mask4_155_353)">
<path d="M41.5313 32.5562V77.0158C41.5313 77.5364 41.8086 78.0189 42.2636 78.2912C42.7187 78.5619 43.2863 78.5826 43.7609 78.3453L83.9107 58.2428C85.2791 57.5565 86.1403 56.1824 86.1403 54.6809V10.2213C86.1403 9.70065 85.863 9.21659 85.408 8.94591C84.9529 8.67363 84.3853 8.65293 83.9107 8.89177L43.7609 28.9943C42.3925 29.679 41.5313 31.0547 41.5313 32.5562Z" stroke="#A3D9C5" stroke-width="12"/>
</g>
</g>
<mask id="mask5_155_353" style="mask-type:luminance" maskUnits="userSpaceOnUse" x="0" y="8" width="45" height="71">
<path d="M0 8.69043H44.6123V78.6105H0V8.69043Z" fill="white"/>
</mask>
<g mask="url(#mask5_155_353)">
<mask id="mask6_155_353" style="mask-type:luminance" maskUnits="userSpaceOnUse" x="0" y="8" width="45" height="71">
<path d="M0 54.6789V10.2177C0 9.69701 0.278908 9.21296 0.73397 8.94227C1.18903 8.66999 1.755 8.65089 2.22964 8.88814L42.3827 28.9906C43.7511 29.6769 44.6123 31.051 44.6123 32.5526V77.0153C44.6123 77.536 44.335 78.0185 43.88 78.2907C43.4249 78.5614 42.8573 78.5821 42.3827 78.3449L2.22964 58.2408C0.861191 57.5561 0 56.1804 0 54.6789Z" fill="white"/>
</mask>
<g mask="url(#mask6_155_353)">
<path d="M0 79.4611V7.83887H44.6123V79.4611H0Z" fill="#FFA63E"/>
</g>
</g>
<path d="M20.0154 92.1342C19.9322 92.1597 19.8914 92.1279 19.8914 92.0387C19.986 91.7712 19.9714 91.5355 19.8458 91.3317C19.7185 91.1247 19.4935 91.0196 19.1673 91.0196C18.7497 91.0196 18.4121 91.2776 18.156 91.7903C17.8983 92.2998 17.7711 92.9654 17.7711 93.7838C17.7711 94.3873 18.0141 94.6882 18.5018 94.6882C18.7236 94.6882 18.9666 94.6086 19.2325 94.4462C19.5016 94.2854 19.7495 94.0768 19.9763 93.822C20.0284 93.7966 20.0741 93.8029 20.1133 93.8412C20.1524 93.8794 20.1589 93.924 20.1328 93.9749C19.8017 94.3873 19.4347 94.7137 19.0302 94.9557C18.6257 95.1978 18.1919 95.3188 17.7319 95.3188C17.4449 95.3188 17.2002 95.2217 17.0012 95.0258C16.8055 94.8268 16.7076 94.5465 16.7076 94.1851C16.7076 93.7392 16.8022 93.2902 16.9947 92.8348C17.1855 92.381 17.4318 91.975 17.7319 91.6183C18.032 91.2585 18.3583 90.9671 18.7106 90.7458C19.0661 90.5213 19.4152 90.4082 19.7544 90.4082C20.0578 90.4082 20.2959 90.491 20.4656 90.6566C20.6352 90.8222 20.72 91.0069 20.72 91.2107C20.72 91.2871 20.6955 91.3699 20.6482 91.4591C20.6042 91.5483 20.5455 91.6406 20.4721 91.733C20.402 91.8221 20.3237 91.9049 20.2372 91.9814C20.154 92.0578 20.0806 92.1088 20.0154 92.1342Z" fill="#05515D"/>
<path d="M22.3884 95.1469C22.9789 92.948 23.6574 90.9656 24.424 89.1982C25.1889 87.4323 25.9979 85.9292 26.851 84.6888C27.7024 83.4501 28.5636 82.4947 29.4345 81.8227C30.3088 81.1476 31.139 80.8101 31.9268 80.8101C32.253 80.8101 32.509 80.8849 32.6966 81.033C32.8874 81.1779 33.0179 81.3562 33.0881 81.568C33.1615 81.7813 33.1729 82.0075 33.1207 82.2495C33.0685 82.4915 32.9706 82.7112 32.8271 82.9055C32.788 82.9437 32.7488 82.9564 32.7097 82.9437C32.6705 82.931 32.6509 82.8991 32.6509 82.8482C32.7162 82.5902 32.6444 82.345 32.4356 82.1157C32.2269 81.8864 31.8909 81.7718 31.4309 81.7718C30.7263 81.7718 30.0543 81.9597 29.415 82.3323C28.7788 82.7017 28.1591 83.3179 27.5556 84.1793C26.9553 85.0423 26.3649 86.1856 25.7875 87.6123C25.2134 89.0389 24.623 90.8143 24.0195 92.9368C24.2185 92.5929 24.4452 92.2681 24.698 91.9624C24.9541 91.6535 25.233 91.3828 25.5331 91.1535C25.8364 90.9242 26.1594 90.7443 26.4987 90.6121C26.8379 90.4768 27.1918 90.4083 27.5621 90.4083C27.7187 90.4083 27.8312 90.4465 27.9013 90.523C27.9747 90.5994 28.0123 90.6885 28.0123 90.7905C28.0123 90.9561 27.9535 91.1408 27.8361 91.3446C27.5621 91.8207 27.337 92.3095 27.1641 92.8095C26.9945 93.3063 26.9097 93.7585 26.9097 94.1661C26.9097 94.3444 26.9292 94.4941 26.9684 94.6119C27.0075 94.7266 27.0793 94.7839 27.1837 94.7839C27.3174 94.7839 27.4642 94.717 27.6208 94.5801C27.7774 94.4447 27.9079 94.2935 28.0123 94.1279C28.0514 94.1024 28.0905 94.1072 28.1297 94.1406C28.1688 94.1709 28.1819 94.2043 28.1688 94.2425C27.9992 94.5275 27.7594 94.7775 27.4512 94.9941C27.1413 95.2106 26.864 95.3189 26.6161 95.3189C26.3943 95.3189 26.2116 95.26 26.0681 95.1406C25.9245 95.018 25.8528 94.8078 25.8528 94.51C25.8528 94.2807 25.874 94.0371 25.918 93.7776C25.9653 93.5148 26.024 93.2553 26.0942 93.0005C26.1675 92.7426 26.2524 92.4894 26.3486 92.2426C26.4481 91.9926 26.5574 91.7633 26.6748 91.5547C26.74 91.4019 26.7727 91.2936 26.7727 91.2299C26.7727 91.1153 26.7074 91.058 26.5769 91.058C26.329 91.058 26.0583 91.1519 25.7679 91.3382C25.4809 91.5213 25.2003 91.7824 24.9263 92.1216C24.6523 92.4623 24.3864 92.87 24.1304 93.3445C23.8727 93.8158 23.6541 94.3412 23.4714 94.9176C23.4453 95.0068 23.341 95.096 23.1583 95.1851C22.9756 95.2743 22.7701 95.3189 22.545 95.3189C22.4145 95.3189 22.3623 95.2616 22.3884 95.1469Z" fill="#05515D"/>
<path d="M35.5601 94.1087C35.5862 94.0832 35.6188 94.0832 35.658 94.1087C35.6971 94.1341 35.7102 94.1723 35.6971 94.2233C35.4623 94.5593 35.198 94.8268 34.9077 95.0258C34.6206 95.2217 34.3466 95.3188 34.0857 95.3188C33.7856 95.3188 33.5915 95.1118 33.505 94.6946C33.4218 94.279 33.4659 93.7838 33.6355 93.2106C33.2783 93.7584 32.8934 94.2281 32.4807 94.6182C32.0713 95.0099 31.6358 95.2424 31.1759 95.3188C30.8627 95.3188 30.6181 95.1787 30.4452 94.8984C30.2755 94.615 30.1907 94.287 30.1907 93.9176C30.1907 93.4972 30.2951 93.08 30.5039 92.6629C30.7159 92.2473 30.9965 91.8731 31.3455 91.5419C31.6929 91.2075 32.0779 90.9352 32.5003 90.7267C32.926 90.5149 33.3566 90.4082 33.7921 90.4082C34.2488 90.4082 34.6076 90.5165 34.8686 90.733C35.0023 90.6439 35.1703 90.5674 35.3709 90.5037C35.5748 90.44 35.7559 90.4082 35.9124 90.4082C35.9646 90.4082 35.9907 90.44 35.9907 90.5037C35.6906 90.8604 35.4313 91.2537 35.2143 91.682C35.0007 92.1119 34.8327 92.5212 34.712 92.9113C34.5946 93.303 34.5228 93.6501 34.4967 93.9558C34.4706 94.2615 34.4967 94.4749 34.575 94.5927C34.6402 94.6691 34.7511 94.693 34.9077 94.6628C35.0676 94.6293 35.2861 94.4446 35.5601 94.1087ZM31.7826 94.6118C31.9425 94.6118 32.1366 94.5163 32.3633 94.3252C32.5933 94.1309 32.833 93.873 33.0809 93.5545C33.3321 93.2329 33.5784 92.873 33.8182 92.4782C34.0612 92.0833 34.2749 91.6804 34.4575 91.268C34.4054 91.1024 34.283 90.9687 34.0922 90.8668C33.9046 90.7649 33.6877 90.7139 33.4398 90.7139C33.1348 90.7139 32.8526 90.7888 32.5916 90.9368C32.3307 91.0817 32.1039 91.2855 31.9131 91.5483C31.7207 91.8126 31.569 92.1263 31.4564 92.4909C31.3471 92.8523 31.2933 93.252 31.2933 93.6883C31.2933 93.9685 31.3406 94.1946 31.4369 94.3634C31.5363 94.529 31.6521 94.6118 31.7826 94.6118Z" fill="#05515D"/>
<path d="M41.947 90.408C42.234 90.408 42.4656 90.5465 42.6451 90.822C42.8228 91.0943 42.9126 91.4175 42.9126 91.7901C42.9126 92.3124 42.8033 92.7885 42.5863 93.2168C42.3678 93.6467 42.084 94.0177 41.7317 94.3314C41.3794 94.6467 40.9716 94.8903 40.5117 95.0638C40.055 95.2342 39.5885 95.3186 39.1155 95.3186C38.8937 95.3186 38.7045 95.2931 38.5479 95.2422C38.3261 95.8695 38.1254 96.5415 37.9477 97.2548C37.7682 97.9713 37.6802 98.6385 37.6802 99.2547C37.6802 99.5477 37.8253 99.6623 38.1173 99.5986C38.2217 99.5859 38.3212 99.5604 38.4174 99.5222C38.5169 99.484 38.6131 99.433 38.7045 99.3693C38.7567 99.3693 38.7844 99.3948 38.7893 99.4458C38.7974 99.4967 38.7893 99.5477 38.7632 99.5986C38.6849 99.6368 38.5691 99.6767 38.4174 99.7196C38.269 99.7658 38.1075 99.8104 37.9346 99.8534C37.765 99.8996 37.5954 99.9362 37.4257 99.9617C37.2561 99.9872 37.1126 99.9999 36.9951 99.9999C36.8907 99.9999 36.8059 99.9744 36.7407 99.9235C36.6754 99.8725 36.6428 99.7961 36.6428 99.6942C36.6428 99.0397 36.7521 98.2818 36.969 97.4204C37.1827 96.5574 37.4583 95.6657 37.7976 94.7454C37.7193 94.6435 37.6736 94.5591 37.6606 94.4906C37.6475 94.4397 37.7454 94.3823 37.9542 94.3186C38.1271 93.8601 38.313 93.4015 38.5087 92.9429C38.7045 92.4812 38.9002 92.0242 39.0959 91.5736C39.3438 91.0513 39.4564 90.7265 39.4352 90.5991C39.4172 90.4717 39.3373 90.4462 39.1938 90.5227C38.998 90.6246 38.7828 90.8029 38.5479 91.0577C38.5218 91.0831 38.4908 91.0752 38.4565 91.0322C38.4256 90.986 38.4174 90.9494 38.4304 90.9239C38.5218 90.822 38.6392 90.7121 38.7828 90.5927C38.9263 90.4701 39.078 90.3571 39.2394 90.2552C39.4042 90.1501 39.5657 90.0625 39.7222 89.994C39.8821 89.9224 40.0223 89.8857 40.1398 89.8857C40.2833 89.8857 40.3763 89.9478 40.4203 90.0704C40.4676 90.1946 40.4595 90.3252 40.3942 90.4653C40.2246 90.9112 40.0028 91.4175 39.7288 91.9812C39.8592 91.8028 40.0093 91.6213 40.1789 91.4334C40.3486 91.2471 40.5263 91.0768 40.7139 90.9239C40.9047 90.771 41.1054 90.6484 41.3141 90.5545C41.5262 90.4574 41.7382 90.408 41.947 90.408ZM39.6113 94.9364C39.9245 94.9364 40.2181 94.8759 40.4921 94.7517C40.7661 94.6291 41.0042 94.4508 41.2097 94.2167C41.4136 93.9795 41.5767 93.6849 41.6991 93.3314C41.8246 92.9795 41.8883 92.5735 41.8883 92.1149C41.8883 91.8092 41.8295 91.5608 41.7121 91.3697C41.5947 91.1755 41.425 91.0768 41.2032 91.0768C40.8982 91.0768 40.5345 91.3411 40.1137 91.8665C39.6961 92.3888 39.3112 93.1244 38.9589 94.0702C38.9198 94.1722 38.8806 94.2788 38.8415 94.3887C38.8023 94.4954 38.7632 94.6084 38.724 94.7263C38.9328 94.8664 39.228 94.9364 39.6113 94.9364Z" fill="#05515D"/>
<path d="M48.7683 90.5035C48.8335 90.529 48.8596 90.5656 48.8466 90.6118C48.8335 90.6548 48.7748 90.6882 48.6704 90.7137C48.4747 90.7137 48.248 90.7201 47.9919 90.7328C47.7342 90.7456 47.4635 90.7647 47.1764 90.7902C46.9154 91.4191 46.6969 92.0305 46.524 92.6245C46.3544 93.22 46.2695 93.7008 46.2695 94.0702C46.2695 94.5081 46.4408 94.7263 46.785 94.7263C47.1242 94.7263 47.5026 94.4381 47.9202 93.8601C47.9593 93.8346 47.9936 93.8346 48.0245 93.8601C48.0588 93.8855 48.0702 93.9301 48.0572 93.9938C47.8353 94.3505 47.5548 94.661 47.2156 94.9237C46.8763 95.188 46.5403 95.3186 46.2108 95.3186C45.8716 95.3186 45.6188 95.2406 45.454 95.0829C45.2926 94.9221 45.2126 94.6992 45.2126 94.4142C45.2126 94.0448 45.304 93.5352 45.4866 92.8856C45.6693 92.2328 45.9042 91.5656 46.1913 90.8857C45.852 90.9239 45.5388 90.9749 45.2518 91.0385C45.1816 91.0258 45.1637 90.994 45.1996 90.943C45.2338 90.8921 45.2926 90.8395 45.3757 90.7838C45.4622 90.7249 45.5649 90.6739 45.6824 90.6309C45.7998 90.5848 45.9107 90.5609 46.0151 90.5609C46.0673 90.5609 46.1195 90.5609 46.1717 90.5609C46.2239 90.5609 46.2761 90.5545 46.3283 90.5418C46.4979 90.1692 46.674 89.8093 46.8567 89.4654C47.0427 89.1214 47.2286 88.8078 47.4113 88.5228C47.4896 88.4336 47.5956 88.3556 47.731 88.2871C47.8696 88.2154 48.005 88.1597 48.1355 88.1215C48.2692 88.0833 48.3785 88.0626 48.4617 88.0578C48.5481 88.0498 48.5856 88.0705 48.5726 88.1215C48.3508 88.4527 48.1306 88.8253 47.9136 89.2361C47.6951 89.6437 47.4896 90.0736 47.2938 90.5227C47.5418 90.5099 47.7929 90.5035 48.0506 90.5035C48.3067 90.5035 48.5465 90.5035 48.7683 90.5035Z" fill="#05515D"/>
<path d="M54.0346 91.3636C54.0346 92.0944 53.0446 92.5928 51.0661 92.8603C51.0531 92.9877 51.0417 93.1183 51.0335 93.2488C51.0286 93.3762 51.027 93.51 51.027 93.6501C51.027 93.9813 51.1053 94.2392 51.2619 94.4207C51.4185 94.5991 51.668 94.6882 52.0122 94.6882C52.2601 94.6882 52.5145 94.6182 52.7755 94.4781C53.0397 94.3348 53.2517 94.1532 53.4083 93.9367C53.4605 93.9112 53.4997 93.9224 53.5258 93.9685C53.5519 94.0115 53.5584 94.0577 53.5453 94.1087C53.2795 94.4446 52.9467 94.7312 52.5471 94.9685C52.1508 95.2026 51.7218 95.3188 51.2619 95.3188C50.8052 95.3188 50.4741 95.2089 50.2702 94.9876C50.0647 94.7631 49.9636 94.4446 49.9636 94.0322C49.9636 93.6373 50.0484 93.2265 50.218 92.7966C50.3909 92.3683 50.6111 91.975 50.8769 91.6183C51.1461 91.2585 51.4543 90.9671 51.8034 90.7458C52.1508 90.5213 52.5015 90.4082 52.8538 90.4082C53.2093 90.4082 53.4948 90.5085 53.7084 90.7076C53.9254 90.9034 54.0346 91.1215 54.0346 91.3636ZM52.3253 90.905C52.0252 90.905 51.7659 91.0435 51.5489 91.319C51.3304 91.596 51.1836 92.0196 51.1053 92.5928C51.7349 92.5291 52.2014 92.4129 52.5015 92.2425C52.8016 92.0689 52.9516 91.8524 52.9516 91.5929C52.9516 91.4018 52.8929 91.241 52.7755 91.1088C52.658 90.9735 52.508 90.905 52.3253 90.905Z" fill="#05515D"/>
<path d="M58.0068 90.9623C58.0068 91.1534 57.9872 91.3731 57.9481 91.6183C57.9089 91.8604 57.8567 92.1088 57.7915 92.3635C58.0524 91.7489 58.3395 91.268 58.6527 90.9241C58.9691 90.5802 59.3116 90.4082 59.677 90.4082C59.8727 90.4082 60.0227 90.4528 60.1271 90.542C60.2315 90.6311 60.2837 90.7458 60.2837 90.8859C60.2837 91.0133 60.2331 91.182 60.1337 91.389C60.0374 91.5929 59.9575 91.733 59.8923 91.8094C59.8662 91.8221 59.8401 91.8206 59.814 91.803C59.7879 91.7823 59.7748 91.7585 59.7748 91.733C59.7748 91.6406 59.7373 91.561 59.6639 91.4973C59.5938 91.4336 59.4878 91.4018 59.3442 91.4018C58.8826 91.4018 58.4651 91.7075 58.0916 92.3189C57.7164 92.9272 57.3739 93.7998 57.0608 94.9366C57.0477 95.0003 57.0021 95.0561 56.9238 95.1022C56.8455 95.1452 56.7558 95.1834 56.6563 95.2169C56.56 95.2471 56.4605 95.2726 56.3562 95.2933C56.2518 95.3108 56.1572 95.3188 56.0756 95.3188C55.9321 95.3188 55.8929 95.2424 55.9582 95.0895C56.0789 94.822 56.1947 94.5322 56.304 94.2169C56.4165 93.9033 56.5193 93.5864 56.6106 93.2679C56.7019 92.9463 56.7802 92.6358 56.8455 92.338C56.9107 92.0371 56.9629 91.7569 57.0021 91.4973C57.0281 91.3062 57.0363 91.1598 57.0281 91.0579C57.0233 90.9559 56.9694 90.905 56.865 90.905C56.7346 90.905 56.5992 90.9607 56.4605 91.0706C56.3252 91.1773 56.1963 91.3126 56.0756 91.4782C56.0234 91.5164 55.9729 91.5212 55.9256 91.491C55.8815 91.4575 55.8734 91.4145 55.8995 91.3636C55.9778 91.2617 56.0724 91.1582 56.1865 91.0515C56.2991 90.9416 56.423 90.8397 56.5584 90.7458C56.697 90.6486 56.8406 90.5674 56.989 90.5037C57.1407 90.44 57.2956 90.4082 57.4522 90.4082C57.6643 90.4082 57.811 90.4576 57.8893 90.5547C57.9676 90.6486 58.0068 90.784 58.0068 90.9623Z" fill="#05515D"/>
<path d="M63.921 89.5802C63.8819 89.6184 63.8379 89.6184 63.7906 89.5802C63.7465 89.542 63.7123 89.4894 63.6862 89.421C63.6601 89.3493 63.647 89.2729 63.647 89.1917C63.647 89.1073 63.6666 89.0325 63.7057 88.9688C63.8493 88.7904 64.0613 88.5643 64.3451 88.2873C64.6273 88.0118 64.9192 87.7777 65.2193 87.5867C65.2454 87.5739 65.2781 87.5851 65.3172 87.6185C65.3564 87.6488 65.3694 87.6758 65.3564 87.7013C65.0823 87.9433 64.8181 88.2347 64.5669 88.5739C64.319 88.9146 64.1037 89.249 63.921 89.5802ZM61.8203 91.7521C61.7811 91.7775 61.7485 91.7696 61.7224 91.7266C61.6963 91.6804 61.6898 91.6358 61.7028 91.5928C62.1856 91.2107 62.8592 90.8158 63.7253 90.4082C63.8297 90.4082 63.8819 90.4655 63.8819 90.5802C63.7123 90.8731 63.5443 91.1948 63.3795 91.5419C63.2181 91.8858 63.0745 92.2282 62.9489 92.5673C62.8217 92.9033 62.7206 93.2281 62.6423 93.5418C62.564 93.8571 62.5249 94.115 62.5249 94.3188C62.5249 94.5784 62.6162 94.7073 62.7989 94.7073C62.9424 94.7073 63.0827 94.6468 63.223 94.5226C63.3616 94.4 63.5231 94.2424 63.7057 94.0513C63.7318 94.0258 63.7645 94.0306 63.8036 94.0641C63.8427 94.0943 63.8493 94.1405 63.8232 94.2042C63.5361 94.5401 63.2507 94.8092 62.9685 95.0131C62.6847 95.2169 62.414 95.3188 62.153 95.3188C61.6914 95.3188 61.4614 95.1086 61.4614 94.6882C61.4614 94.4558 61.4973 94.1835 61.5723 93.873C61.6457 93.5593 61.7436 93.2393 61.8659 92.9112C61.9915 92.5848 62.1285 92.2648 62.2769 91.9495C62.4286 91.6358 62.5836 91.3636 62.7402 91.1343C62.5966 91.2107 62.4352 91.3062 62.2574 91.4209C62.0829 91.5355 61.9377 91.647 61.8203 91.7521Z" fill="#05515D"/>
<path d="M71.3322 94.1087C71.3583 94.0832 71.3909 94.0832 71.43 94.1087C71.4692 94.1341 71.4822 94.1723 71.4692 94.2233C71.2343 94.5593 70.9701 94.8268 70.6797 95.0258C70.3927 95.2217 70.1187 95.3188 69.8577 95.3188C69.5576 95.3188 69.3635 95.1118 69.277 94.6946C69.1939 94.279 69.2379 93.7838 69.4075 93.2106C69.0503 93.7584 68.6654 94.2281 68.2528 94.6182C67.8434 95.0099 67.4079 95.2424 66.9479 95.3188C66.6348 95.3188 66.3901 95.1787 66.2172 94.8984C66.0476 94.615 65.9628 94.287 65.9628 93.9176C65.9628 93.4972 66.0672 93.08 66.2759 92.6629C66.488 92.2473 66.7685 91.8731 67.1175 91.5419C67.465 91.2075 67.8499 90.9352 68.2723 90.7267C68.698 90.5149 69.1286 90.4082 69.5641 90.4082C70.0208 90.4082 70.3796 90.5165 70.6406 90.733C70.7743 90.6439 70.9423 90.5674 71.143 90.5037C71.3468 90.44 71.5279 90.4082 71.6845 90.4082C71.7367 90.4082 71.7628 90.44 71.7628 90.5037C71.4626 90.8604 71.2033 91.2537 70.9864 91.682C70.7727 92.1119 70.6047 92.5212 70.484 92.9113C70.3666 93.303 70.2948 93.6501 70.2687 93.9558C70.2426 94.2615 70.2687 94.4749 70.347 94.5927C70.4123 94.6691 70.5232 94.693 70.6797 94.6628C70.8396 94.6293 71.0581 94.4446 71.3322 94.1087ZM67.5547 94.6118C67.7145 94.6118 67.9086 94.5163 68.1353 94.3252C68.3653 94.1309 68.6051 93.873 68.853 93.5545C69.1042 93.2329 69.3504 92.873 69.5902 92.4782C69.8332 92.0833 70.0469 91.6804 70.2296 91.268C70.1774 91.1024 70.0551 90.9687 69.8642 90.8668C69.6767 90.7649 69.4597 90.7139 69.2118 90.7139C68.9068 90.7139 68.6246 90.7888 68.3637 90.9368C68.1027 91.0817 67.876 91.2855 67.6852 91.5483C67.4927 91.8126 67.341 92.1263 67.2285 92.4909C67.1192 92.8523 67.0654 93.252 67.0654 93.6883C67.0654 93.9685 67.1127 94.1946 67.2089 94.3634C67.3084 94.529 67.4242 94.6118 67.5547 94.6118Z" fill="#05515D"/>
<mask id="mask7_155_353" style="mask-type:luminance" maskUnits="userSpaceOnUse" x="36" y="7" width="17" height="8">
<path d="M36.6707 7.22412H52.2945V14.0295H36.6707V7.22412Z" fill="white"/>
</mask>
<g mask="url(#mask7_155_353)">
<path d="M44.927 14.0297C42.4479 13.9803 40.3634 13.2479 38.6051 11.7002C38.0277 11.1922 37.5417 10.6111 37.1421 9.9614C37.0752 9.85154 36.9985 9.74645 36.9284 9.63658C36.3999 8.80223 36.7425 7.69241 37.7309 7.33415C38.5187 7.04913 39.3864 7.37236 39.7403 8.11755C40.0502 8.7656 40.52 9.27513 41.0859 9.70823C41.9651 10.377 42.9665 10.7623 44.074 10.8929C45.0494 11.0091 45.9986 10.9072 46.912 10.5426C47.5547 10.2846 48.1157 9.91204 48.5675 9.39455C48.822 9.10157 49.0226 8.77993 49.1661 8.42326C49.2102 8.31817 49.2542 8.2099 49.3097 8.10959C49.6326 7.53159 50.2769 7.23065 50.9668 7.32937C51.5996 7.42013 52.1265 7.92807 52.2553 8.55861C52.3157 8.85636 52.2782 9.14138 52.1705 9.42162C51.6828 10.6923 50.8591 11.7145 49.737 12.5106C48.6132 13.3084 47.3508 13.7717 45.9742 13.9405C45.5876 13.9883 45.1978 14.0074 44.927 14.0297Z" fill="#FFA63E"/>
</g>
<mask id="mask8_155_353" style="mask-type:luminance" maskUnits="userSpaceOnUse" x="62" y="0" width="9" height="8">
<path d="M62.6403 0H70.3845V7.64452H62.6403V0Z" fill="white"/>
</mask>
<g mask="url(#mask8_155_353)">
<path d="M70.5068 3.83589C70.5019 5.93769 68.724 7.68283 66.4928 7.64143C64.4213 7.60321 62.6663 5.98705 62.6402 3.87251C62.6142 1.68631 64.4132 0.0144192 66.5433 8.87551e-05C68.7485 -0.0142416 70.5117 1.7086 70.5068 3.83589Z" fill="#FFA63E"/>
</g>
<mask id="mask9_155_353" style="mask-type:luminance" maskUnits="userSpaceOnUse" x="18" y="0" width="9" height="8">
<path d="M18.713 0.216309H26.6333V7.96115H18.713V0.216309Z" fill="white"/>
</mask>
<g mask="url(#mask9_155_353)">
<path d="M26.6203 4.10001C26.6219 6.19544 24.8718 7.94376 22.6438 7.92147C20.5202 7.89918 18.7896 6.26391 18.7537 4.16847C18.7178 1.9361 20.5756 0.302425 22.6405 0.278541C24.7755 0.256249 26.6186 1.92814 26.6203 4.10001Z" fill="#FFA63E"/>
</g>
</svg>
